<svg width="470" height="800" viewBox="0 0 470 800" fill="none" xmlns="http://www.w3.org/2000/svg">
<rect x="130" y="20" width="100" height="100" rx="15" fill="#0078D4"/>
<path d="M60 58.8L94.5011 24.989C103.993 15.6865 120 22.4115 120 35.7021V105C120 113.284 113.284 120 105 120H35.7121C22.4201 120 15.6956 103.99 25.001 94.4989L60 58.8Z" fill="#0078D4"/>
<path d="M411.2 60L445.011 94.5011C454.314 103.993 447.588 120 434.298 120H365C356.716 120 350 113.284 350 105V35.7121C350 22.4201 366.01 15.6956 375.501 25.001L411.2 60Z" fill="#0078D4"/>
<path d="M410 411.2L375.499 445.011C366.007 454.314 350 447.589 350 434.298V365C350 356.716 356.716 350 365 350H434.288C447.58 350 454.304 366.01 444.999 375.501L410 411.2Z" fill="#0078D4"/>
<path d="M353.238 705.174C344.368 695.566 351.183 680 364.26 680H435C443.284 680 450 686.716 450 695V765.74C450 778.817 434.434 785.632 424.826 776.762L387.6 742.4L353.238 705.174Z" fill="#0078D4"/>
<rect x="130" y="680" width="100" height="100" rx="15" fill="white"/>
<rect x="240" y="680" width="100" height="100" rx="15" fill="white"/>
<rect x="20" y="680" width="100" height="100" rx="15" fill="#0078D4"/>
<rect x="20" y="570" width="100" height="100" rx="15" fill="#0078D4"/>
<rect x="20" y="460" width="100" height="100" rx="15" fill="#0078D4"/>
<rect x="350" y="570" width="100" height="100" rx="15" fill="#0078D4"/>
<rect x="350" y="460" width="100" height="100" rx="15" fill="#0078D4"/>
<rect x="20" y="240" width="100" height="100" rx="15" fill="#0078D4"/>
<rect x="20" y="130" width="100" height="100" rx="15" fill="#0078D4"/>
<rect x="20" y="350" width="100" height="100" rx="15" fill="#0078D4"/>
<rect x="130" y="350" width="100" height="100" rx="15" fill="#0078D4"/>
<rect x="240" y="350" width="100" height="100" rx="15" fill="#0078D4"/>
<rect x="350" y="240" width="100" height="100" rx="15" fill="#0078D4"/>
<rect x="350" y="130" width="100" height="100" rx="15" fill="#0078D4"/>
<rect x="240" y="20" width="100" height="100" rx="15" fill="#0078D4"/>
</svg>
